name analog
datacolumns 19
datarows 50
range 0.708 0.7325
endheader
time	ground_force_vx	ground_force_vy	ground_force_vz	ground_force_px	ground_force_py	ground_force_pz	l_ground_force_vx	l_ground_force_vy	l_ground_force_vz	l_ground_force_px	l_ground_force_py	l_ground_force_pz	ground_torque_x	ground_torque_y	ground_torque_z	l_ground_torque_x	l_ground_torque_y	l_ground_torque_z
0.708	-0.0	-0.0	-0.0	-10.450316429138184	-2.5433852672576904	-782.1102905273438	-0.0	-0.0	-0.0	-0.0	-0.0	-0.0	-0.0	-0.0	-0.0	-0.0	-0.0	-0.0
0.7085	-0.0	-0.0	-0.0	-10.235285758972168	-2.145603656768799	-780.2691650390625	-0.0	-0.0	-0.0	-0.0	-0.0	-0.0	-0.0	-0.0	-0.0	-0.0	-0.0	-0.0
0.709	-0.0	-0.0	-0.0	-10.317834854125977	-2.4717137813568115	-780.07958984375	-0.0	-0.0	-0.0	-0.0	-0.0	-0.0	-0.0	-0.0	-0.0	-0.0	-0.0	-0.0
0.7095	-0.0	-0.0	-0.0	-10.23521327972412	-2.228260040283203	-780.2012939453125	-0.0	-0.0	-0.0	-0.0	-0.0	-0.0	-0.0	-0.0	-0.0	-0.0	-0.0	-0.0
0.71	-0.0	-0.0	-0.0	-10.334598541259766	-2.074007987976074	-777.7022705078125	-0.0	-0.0	-0.0	-0.0	-0.0	-0.0	-0.0	-0.0	-0.0	-0.0	-0.0	-0.0
0.7105	-0.0	-0.0	-0.0	-11.199445724487305	-1.3270063400268557	-780.337158203125	-0.0	-0.0	-0.0	-0.0	-0.0	-0.0	-0.0	-0.0	-0.0	-0.0	-0.0	-0.0
0.711	-0.0	-0.0	-0.0	-10.82577419281006	-1.6212350130081177	-778.8001708984375	-0.0	-0.0	-0.0	-0.0	-0.0	-0.0	-0.0	-0.0	-0.0	-0.0	-0.0	-0.0
0.7115	-0.0	-0.0	-0.0	-11.08624267578125	-0.9877731204032898	-780.43212890625	-0.0	-0.0	-0.0	-0.0	-0.0	-0.0	-0.0	-0.0	-0.0	-0.0	-0.0	-0.0
0.712	-0.0	-0.0	-0.0	-10.907855033874512	-0.4864810705184936	-778.7025756835938	-0.0	-0.0	-0.0	-0.0	-0.0	-0.0	-0.0	-0.0	-0.0	-0.0	-0.0	-0.0
0.7125	-0.0	-0.0	-0.0	-10.70526123046875	-0.1209353804588317	-778.312744140625	-0.0	-0.0	-0.0	-0.0	-0.0	-0.0	-0.0	-0.0	-0.0	-0.0	-0.0	-0.0
0.713	-0.0	-0.0	-0.0	-10.437629699707031	0.3807451128959656	-777.1915283203125	-0.0	-0.0	-0.0	-0.0	-0.0	-0.0	-0.0	-0.0	-0.0	-0.0	-0.0	-0.0
0.7135	-0.0	-0.0	-0.0	-10.15362548828125	0.6645280122756958	-777.6373901367188	-0.0	-0.0	-0.0	-0.0	-0.0	-0.0	-0.0	-0.0	-0.0	-0.0	-0.0	-0.0
0.714	-0.0	-0.0	-0.0	-10.056471824645996	1.3774983882904053	-776.4826049804688	-0.0	-0.0	-0.0	-0.0	-0.0	-0.0	-0.0	-0.0	-0.0	-0.0	-0.0	-0.0
0.7145	-0.0	-0.0	-0.0	-9.87801456451416	1.385616898536682	-775.936279296875	-0.0	-0.0	-0.0	-0.0	-0.0	-0.0	-0.0	-0.0	-0.0	-0.0	-0.0	-0.0
0.715	-0.0	-0.0	-0.0	-9.60201358795166	2.0820729732513428	-777.6692504882812	-0.0	-0.0	-0.0	-0.0	-0.0	-0.0	-0.0	-0.0	-0.0	-0.0	-0.0	-0.0
0.7155	-0.0	-0.0	-0.0	-9.473276138305664	2.349245548248291	-775.5200805664062	-0.0	-0.0	-0.0	-0.0	-0.0	-0.0	-0.0	-0.0	-0.0	-0.0	-0.0	-0.0
0.716	-0.0	-0.0	-0.0	-9.708112716674805	2.156367778778076	-775.679931640625	-0.0	-0.0	-0.0	-0.0	-0.0	-0.0	-0.0	-0.0	-0.0	-0.0	-0.0	-0.0
0.7165	-0.0	-0.0	-0.0	-9.440584182739258	2.0185673236846924	-775.1952514648438	-0.0	-0.0	-0.0	-0.0	-0.0	-0.0	-0.0	-0.0	-0.0	-0.0	-0.0	-0.0
0.717	-0.0	-0.0	-0.0	-9.179773330688477	2.1480307579040527	-775.3623657226562	-0.0	-0.0	-0.0	-0.0	-0.0	-0.0	-0.0	-0.0	-0.0	-0.0	-0.0	-0.0
0.7175	-0.0	-0.0	-0.0	-9.16411590576172	2.132678985595703	-775.9005126953125	-0.0	-0.0	-0.0	-0.0	-0.0	-0.0	-0.0	-0.0	-0.0	-0.0	-0.0	-0.0
0.718	-0.0	-0.0	-0.0	-9.650141716003418	1.9208965301513672	-773.8782348632812	-0.0	-0.0	-0.0	-0.0	-0.0	-0.0	-0.0	-0.0	-0.0	-0.0	-0.0	-0.0
0.7185	-0.0	-0.0	-0.0	-9.084172248840332	2.049999237060547	-775.1324462890625	-0.0	-0.0	-0.0	-0.0	-0.0	-0.0	-0.0	-0.0	-0.0	-0.0	-0.0	-0.0
0.719	-0.0	-0.0	-0.0	-8.801460266113281	2.252911329269409	-774.5838012695312	-0.0	-0.0	-0.0	-0.0	-0.0	-0.0	-0.0	-0.0	-0.0	-0.0	-0.0	-0.0
0.7195	-0.0	-0.0	-0.0	-8.856550216674805	1.8717384338378904	-773.7194213867188	-0.0	-0.0	-0.0	-0.0	-0.0	-0.0	-0.0	-0.0	-0.0	-0.0	-0.0	-0.0
0.72	-0.0	-0.0	-0.0	-8.58895206451416	2.0005571842193604	-774.1111450195312	-0.0	-0.0	-0.0	-0.0	-0.0	-0.0	-0.0	-0.0	-0.0	-0.0	-0.0	-0.0
0.7205	-0.0	-0.0	-0.0	-8.306486129760742	2.0004844665527344	-774.17041015625	-0.0	-0.0	-0.0	-0.0	-0.0	-0.0	-0.0	-0.0	-0.0	-0.0	-0.0	-0.0
0.721	-0.0	-0.0	-0.0	-8.242237091064453	1.4857192039489746	-775.6415405273438	-0.0	-0.0	-0.0	-0.0	-0.0	-0.0	-0.0	-0.0	-0.0	-0.0	-0.0	-0.0
0.7215	-0.0	-0.0	-0.0	-7.419132232666016	1.4859235286712646	-773.3480224609375	-0.0	-0.0	-0.0	-0.0	-0.0	-0.0	-0.0	-0.0	-0.0	-0.0	-0.0	-0.0
0.722	-0.0	-0.0	-0.0	-7.657553672790527	1.6043472290039062	-776.4456176757812	-0.0	-0.0	-0.0	-0.0	-0.0	-0.0	-0.0	-0.0	-0.0	-0.0	-0.0	-0.0
0.7225	-0.0	-0.0	-0.0	-7.404472351074219	2.039526462554932	-776.995849609375	-0.0	-0.0	-0.0	-0.0	-0.0	-0.0	-0.0	-0.0	-0.0	-0.0	-0.0	-0.0
0.723	-0.0	-0.0	-0.0	-7.572274684906006	1.9895204305648804	-778.6776733398438	-0.0	-0.0	-0.0	-0.0	-0.0	-0.0	-0.0	-0.0	-0.0	-0.0	-0.0	-0.0
0.7235	-0.0	-0.0	-0.0	-7.315261840820312	1.6934776306152344	-779.044921875	-0.0	-0.0	-0.0	-0.0	-0.0	-0.0	-0.0	-0.0	-0.0	-0.0	-0.0	-0.0
0.724	-0.0	-0.0	-0.0	-7.033510208129883	1.48700213432312	-781.1349487304688	-0.0	-0.0	-0.0	-0.0	-0.0	-0.0	-0.0	-0.0	-0.0	-0.0	-0.0	-0.0
0.7245	-0.0	-0.0	-0.0	-7.133870124816895	1.8326916694641116	-782.7257080078125	-0.0	-0.0	-0.0	-0.0	-0.0	-0.0	-0.0	-0.0	-0.0	-0.0	-0.0	-0.0
0.725	-0.0	-0.0	-0.0	-6.623962879180908	1.9859470129013064	-782.8562622070312	-0.0	-0.0	-0.0	-0.0	-0.0	-0.0	-0.0	-0.0	-0.0	-0.0	-0.0	-0.0
0.7255	-0.0	-0.0	-0.0	-6.445833206176758	1.9495407342910769	-783.2536010742188	-0.0	-0.0	-0.0	-0.0	-0.0	-0.0	-0.0	-0.0	-0.0	-0.0	-0.0	-0.0
0.726	-0.0	-0.0	-0.0	-6.779998779296875	1.8739535808563232	-783.6066284179688	-0.0	-0.0	-0.0	-0.0	-0.0	-0.0	-0.0	-0.0	-0.0	-0.0	-0.0	-0.0
0.7265	-0.0	-0.0	-0.0	-6.525954246520996	1.9608688354492188	-783.4529418945312	-0.0	-0.0	-0.0	-0.0	-0.0	-0.0	-0.0	-0.0	-0.0	-0.0	-0.0	-0.0
0.727	-0.0	-0.0	-0.0	-6.269979953765869	1.9608688354492188	-783.9595336914062	-0.0	-0.0	-0.0	-0.0	-0.0	-0.0	-0.0	-0.0	-0.0	-0.0	-0.0	-0.0
0.7275	-0.0	-0.0	-0.0	-6.421700477600098	1.6934776306152344	-782.846923828125	-0.0	-0.0	-0.0	-0.0	-0.0	-0.0	-0.0	-0.0	-0.0	-0.0	-0.0	-0.0
0.728	-0.0	-0.0	-0.0	-6.053046226501465	1.8970297574996948	-784.2647705078125	-0.0	-0.0	-0.0	-0.0	-0.0	-0.0	-0.0	-0.0	-0.0	-0.0	-0.0	-0.0
0.7285	-0.0	-0.0	-0.0	-6.512367248535156	1.527397394180298	-783.76220703125	-0.0	-0.0	-0.0	-0.0	-0.0	-0.0	-0.0	-0.0	-0.0	-0.0	-0.0	-0.0
0.729	-0.0	-0.0	-0.0	-5.964054584503174	1.6557871103286743	-783.6057739257812	-0.0	-0.0	-0.0	-0.0	-0.0	-0.0	-0.0	-0.0	-0.0	-0.0	-0.0	-0.0
0.7295	-0.0	-0.0	-0.0	-5.8111572265625	1.859275698661804	-782.3942260742188	-0.0	-0.0	-0.0	-0.0	-0.0	-0.0	-0.0	-0.0	-0.0	-0.0	-0.0	-0.0
0.73	-0.0	-0.0	-0.0	-5.173991680145264	1.731738567352295	-782.9500122070312	-0.0	-0.0	-0.0	-0.0	-0.0	-0.0	-0.0	-0.0	-0.0	-0.0	-0.0	-0.0
0.7305	-0.0	-0.0	-0.0	-4.753651142120361	1.9481147527694704	-782.5458374023438	-0.0	-0.0	-0.0	-0.0	-0.0	-0.0	-0.0	-0.0	-0.0	-0.0	-0.0	-0.0
0.731	-0.0	-0.0	-0.0	-4.358688831329346	2.3045003414154053	-781.6382446289062	-0.0	-0.0	-0.0	-0.0	-0.0	-0.0	-0.0	-0.0	-0.0	-0.0	-0.0	-0.0
0.7315	-0.0	-0.0	-0.0	-3.925792932510376	2.062505006790161	-783.2518920898438	-0.0	-0.0	-0.0	-0.0	-0.0	-0.0	-0.0	-0.0	-0.0	-0.0	-0.0	-0.0
0.732	-0.0	-0.0	-0.0	-3.811236619949341	2.559203624725342	-783.4052734375	-0.0	-0.0	-0.0	-0.0	-0.0	-0.0	-0.0	-0.0	-0.0	-0.0	-0.0	-0.0
0.7325	-0.0	-0.0	-0.0	-4.3969502449035645	2.763042449951172	-782.8497314453125	-0.0	-0.0	-0.0	-0.0	-0.0	-0.0	-0.0	-0.0	-0.0	-0.0	-0.0	-0.0
